<mxfile host="app.diagrams.net" modified="2022-04-28T22:30:53.797Z" agent="5.0 (Windows)" etag="SCtX1KNQoxeEOOIj5Vww" version="17.4.5" type="github" pages="2">
  <diagram id="TDBffSFD_2IWMGAObNOl" name="Page-1">
    <mxGraphModel dx="2062" dy="724" grid="1" gridSize="10" guides="1" tooltips="1" connect="1" arrows="1" fold="1" page="1" pageScale="1" pageWidth="850" pageHeight="1100" math="0" shadow="0">
      <root>
        <mxCell id="0" />
        <mxCell id="1" parent="0" />
        <mxCell id="bMSO5PIK1uKmicPc02HT-63" style="edgeStyle=orthogonalEdgeStyle;rounded=0;orthogonalLoop=1;jettySize=auto;html=1;exitX=0.5;exitY=1;exitDx=0;exitDy=0;entryX=0.5;entryY=0;entryDx=0;entryDy=0;" edge="1" parent="1" source="4D4q_7tFMRh7BeZwndc8-25" target="bMSO5PIK1uKmicPc02HT-61">
          <mxGeometry relative="1" as="geometry" />
        </mxCell>
        <mxCell id="4D4q_7tFMRh7BeZwndc8-25" value="" style="image;html=1;image=img/lib/clip_art/networking/Firewall_02_128x128.png;fillColor=none;imageBackground=default;strokeWidth=2;" vertex="1" parent="1">
          <mxGeometry x="350" y="550" width="60" height="50" as="geometry" />
        </mxCell>
        <mxCell id="bMSO5PIK1uKmicPc02HT-16" value="S3" style="sketch=0;pointerEvents=1;shadow=0;dashed=0;html=1;strokeColor=none;fillColor=#DF8C42;labelPosition=center;verticalLabelPosition=bottom;verticalAlign=top;align=center;outlineConnect=0;shape=mxgraph.veeam2.aws_s3;fontStyle=1" vertex="1" parent="1">
          <mxGeometry x="337" y="817" width="34" height="34" as="geometry" />
        </mxCell>
        <mxCell id="bMSO5PIK1uKmicPc02HT-38" value="EC2" style="swimlane;" vertex="1" parent="1">
          <mxGeometry x="491" y="713.8199999999999" width="80" height="87.35" as="geometry" />
        </mxCell>
        <mxCell id="bMSO5PIK1uKmicPc02HT-39" value="FAILOVER" style="sketch=0;outlineConnect=0;fontColor=#232F3E;gradientColor=none;fillColor=#2E27AD;strokeColor=none;dashed=0;verticalLabelPosition=bottom;verticalAlign=top;align=center;html=1;fontSize=12;fontStyle=1;aspect=fixed;pointerEvents=1;shape=mxgraph.aws4.rds_oracle_instance;" vertex="1" parent="bMSO5PIK1uKmicPc02HT-38">
          <mxGeometry x="20" y="26.200000000000045" width="38" height="38" as="geometry" />
        </mxCell>
        <mxCell id="bMSO5PIK1uKmicPc02HT-41" value="" style="outlineConnect=0;dashed=0;verticalLabelPosition=bottom;verticalAlign=top;align=center;html=1;shape=mxgraph.aws3.volume;fillColor=#E05243;gradientColor=none;strokeWidth=2;" vertex="1" parent="1">
          <mxGeometry x="513.5" y="817" width="35" height="39" as="geometry" />
        </mxCell>
        <mxCell id="bMSO5PIK1uKmicPc02HT-42" value="SUBNET PV2" style="swimlane;strokeWidth=2;fillColor=none;strokeColor=#4A36FF;" vertex="1" parent="1">
          <mxGeometry x="476" y="685" width="110" height="190" as="geometry" />
        </mxCell>
        <mxCell id="bMSO5PIK1uKmicPc02HT-43" value="AZ 2" style="swimlane;horizontal=0;strokeWidth=2;fillColor=none;strokeColor=#FF3333;" vertex="1" parent="1">
          <mxGeometry x="443" y="680" width="160" height="200" as="geometry" />
        </mxCell>
        <mxCell id="bMSO5PIK1uKmicPc02HT-44" value="EC2" style="swimlane;" vertex="1" parent="1">
          <mxGeometry x="211" y="713.8199999999999" width="80" height="87.35" as="geometry" />
        </mxCell>
        <mxCell id="bMSO5PIK1uKmicPc02HT-45" value="PRIMARY" style="sketch=0;outlineConnect=0;fontColor=#232F3E;gradientColor=none;fillColor=#2E27AD;strokeColor=none;dashed=0;verticalLabelPosition=bottom;verticalAlign=top;align=center;html=1;fontSize=12;fontStyle=1;aspect=fixed;pointerEvents=1;shape=mxgraph.aws4.rds_oracle_instance;" vertex="1" parent="bMSO5PIK1uKmicPc02HT-44">
          <mxGeometry x="20" y="26.200000000000045" width="38" height="38" as="geometry" />
        </mxCell>
        <mxCell id="bMSO5PIK1uKmicPc02HT-47" value="" style="outlineConnect=0;dashed=0;verticalLabelPosition=bottom;verticalAlign=top;align=center;html=1;shape=mxgraph.aws3.volume;fillColor=#E05243;gradientColor=none;strokeWidth=2;" vertex="1" parent="1">
          <mxGeometry x="233.5" y="817" width="35" height="39" as="geometry" />
        </mxCell>
        <mxCell id="bMSO5PIK1uKmicPc02HT-48" value="SUBNET PV1" style="swimlane;strokeWidth=2;fillColor=none;strokeColor=#4A36FF;" vertex="1" parent="1">
          <mxGeometry x="196" y="685" width="110" height="190" as="geometry" />
        </mxCell>
        <mxCell id="bMSO5PIK1uKmicPc02HT-49" value="AZ 1" style="swimlane;horizontal=0;strokeWidth=2;fillColor=none;strokeColor=#FF3333;" vertex="1" parent="1">
          <mxGeometry x="159" y="680" width="160" height="200" as="geometry" />
        </mxCell>
        <mxCell id="bMSO5PIK1uKmicPc02HT-52" style="edgeStyle=orthogonalEdgeStyle;rounded=0;orthogonalLoop=1;jettySize=auto;html=1;" edge="1" parent="1" source="bMSO5PIK1uKmicPc02HT-9" target="bMSO5PIK1uKmicPc02HT-39">
          <mxGeometry relative="1" as="geometry" />
        </mxCell>
        <mxCell id="bMSO5PIK1uKmicPc02HT-9" value="&lt;div&gt;DATA GAURD&lt;/div&gt;&lt;div&gt;SYNC&lt;br&gt;&lt;/div&gt;" style="sketch=0;pointerEvents=1;shadow=0;dashed=0;html=1;strokeColor=none;fillColor=#505050;labelPosition=center;verticalLabelPosition=bottom;verticalAlign=top;outlineConnect=0;align=center;shape=mxgraph.office.communications.exchange_active_sync;fontStyle=1" vertex="1" parent="1">
          <mxGeometry x="358" y="696.82" width="49" height="49" as="geometry" />
        </mxCell>
        <mxCell id="bMSO5PIK1uKmicPc02HT-51" style="edgeStyle=orthogonalEdgeStyle;rounded=0;orthogonalLoop=1;jettySize=auto;html=1;" edge="1" parent="1" source="bMSO5PIK1uKmicPc02HT-45" target="bMSO5PIK1uKmicPc02HT-9">
          <mxGeometry relative="1" as="geometry" />
        </mxCell>
        <mxCell id="bMSO5PIK1uKmicPc02HT-53" value="S3" style="sketch=0;pointerEvents=1;shadow=0;dashed=0;html=1;strokeColor=none;fillColor=#DF8C42;labelPosition=center;verticalLabelPosition=bottom;verticalAlign=top;align=center;outlineConnect=0;shape=mxgraph.veeam2.aws_s3;fontStyle=1" vertex="1" parent="1">
          <mxGeometry x="394" y="817" width="34" height="34" as="geometry" />
        </mxCell>
        <mxCell id="bMSO5PIK1uKmicPc02HT-54" style="edgeStyle=orthogonalEdgeStyle;rounded=0;orthogonalLoop=1;jettySize=auto;html=1;" edge="1" parent="1" source="bMSO5PIK1uKmicPc02HT-45" target="bMSO5PIK1uKmicPc02HT-16">
          <mxGeometry relative="1" as="geometry">
            <Array as="points">
              <mxPoint x="303" y="770" />
              <mxPoint x="303" y="834" />
            </Array>
          </mxGeometry>
        </mxCell>
        <mxCell id="bMSO5PIK1uKmicPc02HT-57" style="edgeStyle=orthogonalEdgeStyle;rounded=0;orthogonalLoop=1;jettySize=auto;html=1;" edge="1" parent="1" source="bMSO5PIK1uKmicPc02HT-39" target="bMSO5PIK1uKmicPc02HT-53">
          <mxGeometry relative="1" as="geometry">
            <Array as="points">
              <mxPoint x="483" y="770" />
              <mxPoint x="483" y="830" />
            </Array>
          </mxGeometry>
        </mxCell>
        <mxCell id="bMSO5PIK1uKmicPc02HT-62" style="edgeStyle=orthogonalEdgeStyle;rounded=0;orthogonalLoop=1;jettySize=auto;html=1;exitX=0.5;exitY=1;exitDx=0;exitDy=0;entryX=0.5;entryY=0;entryDx=0;entryDy=0;" edge="1" parent="1" source="bMSO5PIK1uKmicPc02HT-58" target="4D4q_7tFMRh7BeZwndc8-25">
          <mxGeometry relative="1" as="geometry" />
        </mxCell>
        <mxCell id="bMSO5PIK1uKmicPc02HT-58" value="" style="rounded=1;arcSize=10;dashed=0;fillColor=none;gradientColor=none;strokeWidth=2;" vertex="1" parent="1">
          <mxGeometry x="320" y="399" width="120" height="120" as="geometry" />
        </mxCell>
        <mxCell id="bMSO5PIK1uKmicPc02HT-59" value="" style="dashed=0;html=1;shape=mxgraph.aws3.corporate_data_center;fillColor=#7D7C7C;gradientColor=none;dashed=0;" vertex="1" parent="1">
          <mxGeometry x="340" y="389" width="30" height="42" as="geometry" />
        </mxCell>
        <mxCell id="bMSO5PIK1uKmicPc02HT-60" value="&lt;b&gt;IIB APPLICATION&lt;/b&gt;" style="shadow=0;dashed=0;html=1;strokeColor=none;fillColor=#4495D1;labelPosition=center;verticalLabelPosition=bottom;verticalAlign=top;align=center;outlineConnect=0;shape=mxgraph.veeam.vm_linux;" vertex="1" parent="1">
          <mxGeometry x="351.4" y="437" width="57.2" height="55.2" as="geometry" />
        </mxCell>
        <mxCell id="bMSO5PIK1uKmicPc02HT-64" style="edgeStyle=orthogonalEdgeStyle;rounded=0;orthogonalLoop=1;jettySize=auto;html=1;exitX=1;exitY=0.5;exitDx=0;exitDy=0;" edge="1" parent="1" source="bMSO5PIK1uKmicPc02HT-61" target="bMSO5PIK1uKmicPc02HT-39">
          <mxGeometry relative="1" as="geometry">
            <Array as="points">
              <mxPoint x="640" y="646" />
              <mxPoint x="640" y="759" />
            </Array>
          </mxGeometry>
        </mxCell>
        <mxCell id="bMSO5PIK1uKmicPc02HT-66" style="edgeStyle=orthogonalEdgeStyle;rounded=0;orthogonalLoop=1;jettySize=auto;html=1;exitX=0;exitY=0.5;exitDx=0;exitDy=0;" edge="1" parent="1" source="bMSO5PIK1uKmicPc02HT-61" target="bMSO5PIK1uKmicPc02HT-45">
          <mxGeometry relative="1" as="geometry">
            <Array as="points">
              <mxPoint x="120" y="646" />
              <mxPoint x="120" y="759" />
            </Array>
          </mxGeometry>
        </mxCell>
        <mxCell id="bMSO5PIK1uKmicPc02HT-61" value="&lt;div&gt;GLOBAL&lt;/div&gt;&lt;div&gt;SERVICE&lt;br&gt;&lt;/div&gt;" style="ellipse;whiteSpace=wrap;html=1;aspect=fixed;fontStyle=1" vertex="1" parent="1">
          <mxGeometry x="346.25" y="612.5" width="67.5" height="67.5" as="geometry" />
        </mxCell>
      </root>
    </mxGraphModel>
  </diagram>
  <diagram id="Yj9PDfjUASPnS5ac-0tq" name="Page-2">
    <mxGraphModel dx="2062" dy="724" grid="1" gridSize="10" guides="1" tooltips="1" connect="1" arrows="1" fold="1" page="1" pageScale="1" pageWidth="850" pageHeight="1100" math="0" shadow="0">
      <root>
        <mxCell id="0" />
        <mxCell id="1" parent="0" />
      </root>
    </mxGraphModel>
  </diagram>
</mxfile>
